<?xml version="1.0" encoding="iso-8859-1"?>
<!-- Generator: Adobe Illustrator 19.0.0, SVG Export Plug-In . SVG Version: 6.00 Build 0)  -->
<svg version="1.1" id="Capa_1" xmlns="http://www.w3.org/2000/svg" xmlns:xlink="http://www.w3.org/1999/xlink" x="0px" y="0px"
	 viewBox="0 0 511.999 511.999" style="enable-background:new 0 0 511.999 511.999;" xml:space="preserve">
<g>
	<g>
		<path d="M359.369,98.807C333.78,81.423,307.32,63.448,283.73,43.131c-16.382-14.11-41.071-14.12-57.428-0.028
			c-23.359,20.124-49.384,37.939-74.551,55.168C78.266,148.578,0.238,200.982,0,313.938c-0.194,91.462,75.536,165.52,166.265,165.52
			h180.734c90.981,0,165-74.019,165-165C511.999,201.438,433.099,148.898,359.369,98.807z M346.999,449.459H166.265
			c-74.73,0-136.421-61.199-136.265-135.457c0.203-96.164,64.383-140.101,138.697-190.976
			c25.843-17.691,52.564-35.985,77.185-57.195c2.55-2.197,5.824-3.294,9.103-3.294c3.295,0,6.595,1.109,9.167,3.325
			c24.89,21.437,52.071,39.903,78.358,57.761c74.848,50.848,139.489,94.763,139.489,190.836
			C481.999,388.898,421.439,449.459,346.999,449.459z"/>
	</g>
</g>
<g>
	<g>
		<path d="M204.479,122.734c-8.26-0.394-15.303,5.997-15.694,14.272c-0.305,6.426-3.403,9.546-10.384,15.99
			c-8.821,8.144-20.901,19.296-20.901,41.462c0,8.284,6.716,15,15,15s15-6.716,15-15c0-8.667,3.449-12.217,11.251-19.419
			c8.061-7.442,19.101-17.634,20.001-36.611C219.144,130.153,212.753,123.127,204.479,122.734z"/>
	</g>
</g>
<g>
	<g>
		<path d="M334.867,152.997c-6.98-6.445-10.079-9.565-10.384-15.99c-0.393-8.275-7.414-14.664-15.694-14.272
			c-8.274,0.393-14.665,7.419-14.272,15.694c0.9,18.978,11.94,29.169,20.001,36.611c7.802,7.203,11.251,10.753,11.251,19.419
			c0,8.284,6.716,15,15,15s15-6.716,15-15C355.768,172.293,343.688,161.14,334.867,152.997z"/>
	</g>
</g>
<g>
	<g>
		<path d="M254.999,89.459c-8.284,0-15,6.716-15,15v90c0,8.284,6.716,15,15,15s15-6.716,15-15v-90
			C269.999,96.174,263.284,89.459,254.999,89.459z"/>
	</g>
</g>
<g>
</g>
<g>
</g>
<g>
</g>
<g>
</g>
<g>
</g>
<g>
</g>
<g>
</g>
<g>
</g>
<g>
</g>
<g>
</g>
<g>
</g>
<g>
</g>
<g>
</g>
<g>
</g>
<g>
</g>
</svg>
