<?xml version="1.0"?>
<svg xmlns="http://www.w3.org/2000/svg" xmlns:xlink="http://www.w3.org/1999/xlink" version="1.1" id="Capa_1" x="0px" y="0px" viewBox="0 0 512 512" style="enable-background:new 0 0 512 512;" xml:space="preserve" width="512px" height="512px" class=""><g><g>
	<g>
		<path d="M497,90c8.284,0,15-6.716,15-15s-6.716-15-15-15H210V30h287c8.284,0,15-6.716,15-15s-6.716-15-15-15    C487.135,0,20.258,0,15,0C6.716,0,0,6.716,0,15s6.716,15,15,15h45v30H15C6.716,60,0,66.716,0,75s6.716,15,15,15h45v122H15    c-8.284,0-15,6.716-15,15c0,88.059,45.651,169.721,120,216.259V467c0,24.813,20.187,45,45,45h182c24.813,0,45-20.187,45-45    v-23.741c74.349-46.538,120-128.2,120-216.259c0-8.284-6.716-15-15-15H210V90H497z M150,30h30v182h-30V30z M90,30h30v182H90V30z     M362,467c0,8.271-6.729,15-15,15H165c-8.271,0-15-6.729-15-15v-15h212V467z M481.498,241.8    c-4.995,74.574-47.028,142.475-112.4,180.2H142.902C77.53,384.275,35.497,316.374,30.502,241.8L75,242h120L481.498,241.8z" data-original="#000000" class="active-path" data-old_color="#000000" fill="#DFDFDF"/>
	</g>
</g></g> </svg>
