<?xml version="1.0"?>
<svg xmlns="http://www.w3.org/2000/svg" xmlns:xlink="http://www.w3.org/1999/xlink" version="1.1" id="Capa_1" x="0px" y="0px" viewBox="0 0 512 512" style="enable-background:new 0 0 512 512;" xml:space="preserve" width="512px" height="512px" class=""><g transform="matrix(-1 0 0 1 512 0)"><g>
	<g>
		<path d="M296.7,130.311c14.519-35.253-19.909-72.707-57.001-58.801c0-1.199,0.3-2.1,0.3-2.999c0-38.268-45.216-59.778-75-33.3    c-29.784-26.478-75-4.969-75,33.3c0,0.899,0.3,1.8,0.3,2.999C52.971,57.515,18.865,95.263,33.3,130.311    c-19.2,5.099-33.3,22.5-33.3,43.2c0,98.399,330,98.399,330,0C330,152.811,315.901,135.41,296.7,130.311z M195,53.511    c8.401,0,15,6.599,15,15c0,8.399-6.599,15-15,15s-15-6.601-15-15C180,60.11,186.599,53.511,195,53.511z M135,53.511    c8.401,0,15,6.599,15,15c0,8.399-6.599,15-15,15s-15-6.601-15-15C120,60.11,126.599,53.511,135,53.511z M45,188.511    c-2.701,0-5.099-0.901-7.2-2.1c-4.801-4.501-7.8-9-7.8-12.9c0-8.401,6.599-15,15-15s15,6.599,15,15    C60,181.91,53.401,188.511,45,188.511z M75,128.511c-8.401,0-15-6.601-15-15c0-8.401,6.599-15,15-15s15,6.599,15,15    C90,121.91,83.401,128.511,75,128.511z M105,203.511c-8.401,0-15-6.601-15-15c0-8.401,6.599-15,15-15s15,6.599,15,15    C120,196.91,113.401,203.511,105,203.511z M135,143.511c-8.401,0-15-6.601-15-15c0-8.401,6.599-15,15-15s15,6.599,15,15    C150,136.91,143.401,143.511,135,143.511z M165,218.511c-8.401,0-15-6.601-15-15c0-8.401,6.599-15,15-15s15,6.599,15,15    C180,211.91,173.401,218.511,165,218.511z M195,143.511c-8.401,0-15-6.601-15-15c0-8.401,6.599-15,15-15s15,6.599,15,15    C210,136.91,203.401,143.511,195,143.511z M225,203.511c-8.401,0-15-6.601-15-15c0-8.401,6.599-15,15-15s15,6.599,15,15    C240,196.91,233.401,203.511,225,203.511z M255,128.511c-8.401,0-15-6.601-15-15c0-8.401,6.599-15,15-15s15,6.599,15,15    C270,121.91,263.401,128.511,255,128.511z M297.9,179.81c-1.199,2.1-2.999,4.2-5.4,6.301c-2.1,1.5-4.799,2.401-7.5,2.401    c-8.401,0-15-6.601-15-15c0-8.402,6.599-15.001,15-15.001s15,6.599,15,15C300,175.611,299.399,177.711,297.9,179.81z" data-original="#000000" class="active-path" data-old_color="#000000" fill="#E1E1E0"/>
	</g>
</g><g>
	<g>
		<path d="M165,278.511c-64.2,0-128.699-14.101-165-45v90c0,48.6,84.901,75,165,75s165-26.401,165-75v-90    C293.699,264.41,229.2,278.511,165,278.511z" data-original="#000000" class="active-path" data-old_color="#000000" fill="#E1E1E0"/>
	</g>
</g><g>
	<g>
		<path d="M467,398.511c-24.814,0-45,20.186-45,45c0,24.814,20.186,45,45,45c24.814,0,45-20.186,45-45    C512,418.697,491.814,398.511,467,398.511z" data-original="#000000" class="active-path" data-old_color="#000000" fill="#E1E1E0"/>
	</g>
</g><g>
	<g>
		<path d="M407,308.511c-24.814,0-45,20.186-45,45c0,24.814,20.186,45,45,45c24.814,0,45-20.186,45-45S431.814,308.511,407,308.511z    " data-original="#000000" class="active-path" data-old_color="#000000" fill="#E1E1E0"/>
	</g>
</g><g>
	<g>
		<path d="M347,398.511c-24.814,0-45,20.186-45,45c0,24.814,20.186,45,45,45c24.814,0,45-20.186,45-45    C392,418.697,371.814,398.511,347,398.511z" data-original="#000000" class="active-path" data-old_color="#000000" fill="#E1E1E0"/>
	</g>
</g></g> </svg>
